<svg width="25" height="24" viewBox="0 0 25 24" fill="none" xmlns="http://www.w3.org/2000/svg">
<path d="M3.52964 9.90527C3.39375 9.82697 3.22628 9.82742 3.09208 9.90654L2.8665 10.0375C2.03929 10.5201 1.75386 11.5922 2.23157 12.4268L2.93233 13.6525C3.01095 13.7911 3.15791 13.8728 3.31176 13.8728C3.34937 13.8728 3.38694 13.8681 3.42455 13.8583C3.51774 13.8332 3.60007 13.7782 3.65877 13.7016C3.71748 13.625 3.74929 13.5312 3.74927 13.4347V10.2852C3.74927 10.1286 3.66552 9.98357 3.52964 9.90527ZM8.63309 7.61713H19.7518C19.8285 7.61716 19.9039 7.59701 19.9703 7.55871C20.0368 7.52041 20.092 7.46531 20.1304 7.39893C20.1689 7.33248 20.1893 7.25705 20.1895 7.18023C20.1896 7.1034 20.1695 7.02789 20.1312 6.96129L18.0017 3.23675C17.5411 2.43075 16.431 2.12871 15.626 2.59588L8.41263 6.80043C8.32944 6.84891 8.26457 6.92349 8.22811 7.01261C8.19164 7.10172 8.18561 7.20038 8.21096 7.29327C8.2359 7.38617 8.29077 7.46825 8.36709 7.5268C8.44341 7.58535 8.5369 7.6171 8.63309 7.61713ZM21.25 8.49999H6.37501C5.41028 8.49999 4.625 9.28483 4.625 10.25V19.875C4.625 20.8401 5.41028 21.625 6.37501 21.625H21.25C22.2147 21.625 23 20.8401 23 19.875V10.25C23 9.28483 22.2147 8.49999 21.25 8.49999ZM9.87533 12.0074C10.8401 12.0074 11.6254 12.7929 11.6254 13.7588C11.6254 14.7247 10.8401 15.5101 9.87533 15.5101C8.91056 15.5101 8.12527 14.7247 8.12527 13.7588C8.12527 12.7929 8.91056 12.0074 9.87533 12.0074ZM13.3755 18.1645C13.3755 18.6322 12.9832 19.0128 12.5005 19.0128H7.25021C6.76741 19.0128 6.37518 18.6322 6.37518 18.1645V17.9643C6.37518 17.382 6.71442 16.8565 7.26132 16.5931C7.87315 16.299 8.82254 15.9479 9.87533 15.9479C10.9281 15.9479 11.8775 16.299 12.4893 16.5931C13.0362 16.8565 13.3755 17.382 13.3755 17.9643V18.1645ZM20.8125 17.25H15.5623C15.5048 17.25 15.4479 17.2387 15.3948 17.2168C15.3417 17.1948 15.2934 17.1626 15.2528 17.1219C15.2122 17.0813 15.18 17.033 15.158 16.9799C15.136 16.9268 15.1247 16.8699 15.1248 16.8125C15.1247 16.755 15.136 16.6981 15.158 16.645C15.18 16.5919 15.2122 16.5436 15.2528 16.503C15.2934 16.4624 15.3417 16.4302 15.3948 16.4082C15.4479 16.3862 15.5048 16.3749 15.5623 16.375H20.8125C20.8699 16.3749 20.9268 16.3862 20.9799 16.4082C21.033 16.4302 21.0813 16.4624 21.1219 16.503C21.1626 16.5436 21.1948 16.5919 21.2168 16.645C21.2387 16.6981 21.25 16.755 21.25 16.8125C21.25 16.8699 21.2387 16.9268 21.2168 16.9799C21.1948 17.033 21.1626 17.0813 21.1219 17.1219C21.0813 17.1626 21.033 17.1948 20.9799 17.2168C20.9268 17.2387 20.8699 17.25 20.8125 17.25ZM20.8133 14.625H13.813C13.7555 14.625 13.6986 14.6137 13.6455 14.5918C13.5924 14.5698 13.5442 14.5376 13.5035 14.4969C13.4629 14.4563 13.4307 14.408 13.4087 14.3549C13.3867 14.3018 13.3754 14.2449 13.3755 14.1875C13.3754 14.13 13.3867 14.0731 13.4087 14.02C13.4307 13.9669 13.4629 13.9186 13.5035 13.878C13.5442 13.8374 13.5924 13.8052 13.6455 13.7832C13.6986 13.7612 13.7555 13.7499 13.813 13.75H20.8133C20.8708 13.7499 20.9277 13.7612 20.9808 13.7832C21.0339 13.8052 21.0821 13.8374 21.1227 13.878C21.1634 13.9186 21.1956 13.9669 21.2176 14.02C21.2396 14.0731 21.2508 14.13 21.2508 14.1875C21.2508 14.2449 21.2396 14.3018 21.2176 14.3549C21.1956 14.408 21.1634 14.4563 21.1227 14.4969C21.0821 14.5376 21.0339 14.5698 20.9808 14.5918C20.9277 14.6137 20.8708 14.625 20.8133 14.625Z" fill="#C6B666"/>
</svg>
