<svg width="25" height="24" viewBox="0 0 25 24" fill="none" xmlns="http://www.w3.org/2000/svg">
<path d="M12.2997 7.86462L13.3407 5.63501L18.9148 8.23745L17.8738 10.4671L12.2997 7.86462Z" fill="#C66694"/>
<path d="M5.08789 16.0384L16.2398 21.2386L23 6.74122L11.8482 1.5L5.08789 16.0384ZM15.347 18.7857L7.54075 15.1457L8.06074 14.0305L15.867 17.6706L15.347 18.7857ZM16.387 16.5554L8.58074 12.9153L9.10074 11.8001L16.907 15.4403L16.387 16.5554ZM17.4271 14.3251L9.62086 10.6849L10.1409 9.56974L17.9471 13.2099L17.4271 14.3251ZM20.5472 7.63397L18.4671 12.0947L10.6608 8.45453L12.741 3.99387L20.5472 7.63397Z" fill="#C66694"/>
<path d="M14.3867 21.7325L3.45249 16.6341L8.19525 6.46289H2V22.5H14.3867V21.7325Z" fill="#C66694"/>
</svg>
