<svg width="25" height="24" viewBox="0 0 25 24" fill="none" xmlns="http://www.w3.org/2000/svg">
<path d="M9.10625 9.63825C9.2149 9.70536 9.33889 9.74362 9.46647 9.74939C9.59404 9.75517 9.72098 9.72827 9.83525 9.67125L11.177 9H14.75C15.1478 9 15.5294 8.84196 15.8107 8.56066C16.092 8.27936 16.25 7.89782 16.25 7.5V4.5C16.25 4.10218 16.092 3.72064 15.8107 3.43934C15.5294 3.15804 15.1478 3 14.75 3H10.25C9.85218 3 9.47064 3.15804 9.18934 3.43934C8.90804 3.72064 8.75 4.10218 8.75 4.5V9C8.75001 9.12794 8.78275 9.25375 8.84511 9.36546C8.90746 9.47718 8.99736 9.57108 9.10625 9.63825Z" fill="#66C692"/>
<path d="M7.25 16.5C8.90685 16.5 10.25 15.1569 10.25 13.5C10.25 11.8431 8.90685 10.5 7.25 10.5C5.59315 10.5 4.25 11.8431 4.25 13.5C4.25 15.1569 5.59315 16.5 7.25 16.5Z" fill="#66C692"/>
<path d="M10.745 16.335C10.3231 16.8552 9.79042 17.2746 9.18578 17.5627C8.58114 17.8508 7.9198 18.0004 7.25002 18.0004C6.58025 18.0004 5.91891 17.8508 5.31427 17.5627C4.70963 17.2746 4.17693 16.8552 3.75502 16.335C2.89927 17.0977 2.31706 18.1199 2.09752 19.245C2.05727 19.4553 2.06395 19.6719 2.11711 19.8793C2.17027 20.0868 2.26858 20.2799 2.40502 20.445C2.54715 20.6179 2.72572 20.7573 2.92797 20.8533C3.13023 20.9492 3.35117 20.9993 3.57502 21H10.925C11.1489 20.9993 11.3698 20.9492 11.5721 20.8533C11.7743 20.7573 11.9529 20.6179 12.095 20.445C12.2318 20.2801 12.3304 20.087 12.3836 19.8795C12.4367 19.672 12.4432 19.4553 12.4025 19.245C12.183 18.1199 11.6008 17.0977 10.745 16.335Z" fill="#66C692"/>
<path d="M17.75 16.5C19.4069 16.5 20.75 15.1569 20.75 13.5C20.75 11.8431 19.4069 10.5 17.75 10.5C16.0931 10.5 14.75 11.8431 14.75 13.5C14.75 15.1569 16.0931 16.5 17.75 16.5Z" fill="#66C692"/>
<path d="M22.9025 19.245C22.683 18.1199 22.1008 17.0977 21.245 16.335C20.8231 16.8552 20.2904 17.2746 19.6858 17.5627C19.0811 17.8508 18.4198 18.0004 17.75 18.0004C17.0802 18.0004 16.4189 17.8508 15.8143 17.5627C15.2096 17.2746 14.6769 16.8552 14.255 16.335C13.3993 17.0977 12.8171 18.1199 12.5975 19.245C12.5568 19.4553 12.5633 19.672 12.6165 19.8795C12.6697 20.087 12.7682 20.2801 12.905 20.445C13.0472 20.6179 13.2257 20.7573 13.428 20.8533C13.6302 20.9492 13.8512 20.9993 14.075 21H21.425C21.6489 20.9993 21.8698 20.9492 22.0721 20.8533C22.2743 20.7573 22.4529 20.6179 22.595 20.445C22.7315 20.2799 22.8298 20.0868 22.8829 19.8793C22.9361 19.6719 22.9428 19.4553 22.9025 19.245Z" fill="#66C692"/>
</svg>
