<svg width="25" height="25" viewBox="0 0 25 25" fill="none" xmlns="http://www.w3.org/2000/svg">
<path d="M20.5985 4.27563H11.877C10.8676 4.27563 10.0496 5.09382 10.0496 6.10295V10.399C10.5107 10.6281 11.0089 10.8759 11.4738 11.107L12.1852 9.68369C12.6159 8.82293 13.6659 8.4732 14.5264 8.90319C15.3886 9.33473 15.738 10.3819 15.3064 11.2443L14.0382 13.7812C14.0722 14.1179 14.0414 14.4579 13.9474 14.783H14.7846L12.5764 20.8552C12.4453 21.2153 12.6986 21.6356 13.1231 21.6356C13.3605 21.6356 13.5838 21.4892 13.6694 21.2526L16.0222 14.783H16.4297L18.8064 21.2546C18.8928 21.4899 19.1155 21.6356 19.3527 21.6356C19.7493 21.6356 20.0401 21.2395 19.8982 20.8537L17.6688 14.783H20.5986C21.6077 14.783 22.4259 13.9648 22.4259 12.9557V6.10299C22.4259 5.09382 21.6077 4.27563 20.5985 4.27563ZM19.3524 12.2914H16.7429C16.4218 12.2914 16.1614 12.0309 16.1614 11.7098C16.1614 11.3884 16.4218 11.1282 16.7429 11.1282H19.3524C19.6738 11.1282 19.9339 11.3884 19.9339 11.7098C19.9339 12.0309 19.6738 12.2914 19.3524 12.2914ZM19.3524 10.1109H16.7429C16.4218 10.1109 16.1614 9.85076 16.1614 9.52933C16.1614 9.20826 16.4218 8.94774 16.7429 8.94774H19.3524C19.6738 8.94774 19.9339 9.20826 19.9339 9.52933C19.9339 9.85076 19.6738 10.1109 19.3524 10.1109ZM19.3524 7.93073H13.1231C12.8017 7.93073 12.5415 7.67018 12.5415 7.34914C12.5415 7.02811 12.8017 6.76755 13.1231 6.76755H19.3524C19.6737 6.76755 19.9339 7.02803 19.9339 7.34914C19.9339 7.67026 19.6738 7.93073 19.3524 7.93073Z" fill="#28A3B3"/>
<path d="M12.8072 14.5335C12.9123 14.2256 12.9115 13.9039 12.8228 13.6104L14.2662 10.7239C14.4097 10.4366 14.2934 10.0872 14.0061 9.9436C13.719 9.79987 13.3695 9.91634 13.2258 10.2037L11.9948 12.6654C11.259 12.299 10.1411 11.7432 9.24056 11.2954C8.40268 10.8787 7.80473 10.5051 6.78454 10.5051H6.27065C7.06502 10.5051 7.77398 10.1394 8.23805 9.56723C8.59216 9.13182 8.8039 8.57686 8.8039 7.97213C8.8039 6.57282 7.6698 5.43872 6.27034 5.43872C4.8715 5.43872 3.7374 6.57282 3.7374 7.97213C3.7374 8.64414 3.99911 9.25481 4.42608 9.70798C4.88771 10.1988 5.54335 10.5051 6.27018 10.5052C5.29571 10.5052 4.34307 10.9 3.65772 11.5872C2.95904 12.2841 2.57422 13.2125 2.57422 14.2015V16.0703C2.57422 16.8749 3.0966 17.5594 3.8201 17.803V21.0538C3.8201 21.3751 4.08046 21.6354 4.40169 21.6354H8.1393C8.46053 21.6354 8.72089 21.3751 8.72089 21.0538V14.5193C9.27235 14.795 9.99678 15.1571 10.5829 15.4503C10.9938 15.6557 11.4739 15.6741 11.9021 15.5C12.329 15.3243 12.6581 14.9746 12.8049 14.5403L12.8072 14.5335Z" fill="#28A3B3"/>
</svg>
